<?xml version="1.0" encoding="UTF-8"?>
<svg version="1.1" xmlns="http://www.w3.org/2000/svg" width="232" height="221">
<path d="M0 0 C3.54281383 2.61860153 4.78669043 4.25341652 6 8.5 C6 12.39874042 5.22473457 13.8853716 3 17 C3 17.66 3 18.32 3 19 C5.00705003 20.70926812 7.0152901 22.30189023 9.125 23.875 C9.69476563 24.30941406 10.26453125 24.74382813 10.8515625 25.19140625 C17.45558802 30.56900907 17.45558802 30.56900907 25.1875 33.5625 C28.22389925 33.28028264 28.22389925 33.28028264 29.875 30.5 C30.431875 29.2625 30.431875 29.2625 31 28 C32.32 28.33 33.64 28.66 35 29 C35.6875 30.6875 35.6875 30.6875 36 33 C33.73846154 37.63076923 33.73846154 37.63076923 31 39 C27.34111679 39.44499931 23.67462966 39.70090224 20 40 C20 43.96 20 47.92 20 52 C20.92039063 51.89816406 21.84078125 51.79632813 22.7890625 51.69140625 C29.28153316 51.4732275 33.92280637 51.58641266 38.8671875 56.16015625 C41.88068334 59.30427661 44.63239756 62.64703066 47.36645508 66.03417969 C49.06844439 68.08236649 50.82724445 70.03648844 52.66796875 71.9609375 C53.21477295 72.53376465 53.76157715 73.1065918 54.32495117 73.69677734 C56.15508877 75.3475299 56.15508877 75.3475299 59.8125 75.5 C62.88720102 75.18273435 62.88720102 75.18273435 65 74 C66.13350534 71.98330173 66.13350534 71.98330173 67 70 C68.65 70.33 70.3 70.66 72 71 C71.70242275 74.2733498 71.30181397 76.53470347 69.5 79.3125 C67 81 67 81 58 82 C57.67 92.89 57.34 103.78 57 115 C62.383125 114.938125 67.76625 114.87625 73.3125 114.8125 C75.00802002 114.80581299 76.70354004 114.79912598 78.45043945 114.79223633 C79.79642653 114.7657887 81.14237944 114.73751115 82.48828125 114.70703125 C83.18546265 114.71101929 83.88264404 114.71500732 84.60095215 114.71911621 C86.87013253 114.70757097 86.87013253 114.70757097 90 114 C92.03370383 111.59927829 92.03370383 111.59927829 93 109 C94.32 109.33 95.64 109.66 97 110 C98.34009244 112.90353361 97.97482809 114.06992196 96.875 117.125 C95.08386884 119.67639546 93.91777735 120.02152 90.8359375 120.828125 C87.57184354 121.32591711 84.28544742 121.67145526 81 122 C85.455 128.435 85.455 128.435 90 135 C89.34 135.99 88.68 136.98 88 138 C86.0546875 138.29296875 86.0546875 138.29296875 83.875 138.1875 C82.59625 138.125625 81.3175 138.06375 80 138 C80.00222061 138.73693588 80.00444122 139.47387177 80.00672913 140.23313904 C80.02673203 147.16412769 80.04197413 154.09511204 80.05181217 161.02612209 C80.05703995 164.58977422 80.06413569 168.15340257 80.07543945 171.71704102 C80.08834176 175.81006097 80.09322906 179.9030558 80.09765625 183.99609375 C80.10281754 185.28148544 80.10797882 186.56687714 80.11329651 187.89122009 C80.11337204 189.07236893 80.11344757 190.25351776 80.11352539 191.47045898 C80.115746 192.51636703 80.11796661 193.56227509 80.12025452 194.63987732 C80 197 80 197 79 198 C76.83804003 198.09914949 74.67277714 198.12632383 72.50854492 198.12698364 C71.82235927 198.12854363 71.13617361 198.13010362 70.42919445 198.13171089 C68.11293118 198.13572301 65.7967326 198.13253044 63.48046875 198.12939453 C61.82679201 198.13074848 60.17311556 198.13252837 58.5194397 198.13470459 C54.01543571 198.13927971 49.51145451 198.13748904 45.0074501 198.1343255 C40.3046894 198.1318023 35.6019307 198.13413933 30.89916992 198.13571167 C23.00015918 198.13753348 15.10115777 198.13512675 7.20214844 198.13037109 C-1.94382761 198.12492845 -11.08978137 198.1266911 -20.23575687 198.1321975 C-28.07352165 198.13672829 -35.91127971 198.13737934 -43.74904537 198.13475883 C-48.43667402 198.13319587 -53.12429218 198.1330028 -57.81192017 198.13629532 C-62.21787184 198.13917355 -66.62379465 198.13719923 -71.02974319 198.13140106 C-72.65155616 198.1300732 -74.27337154 198.13046801 -75.89518356 198.13266373 C-78.09967071 198.13537423 -80.30406385 198.13199536 -82.50854492 198.12698364 C-83.74521408 198.12660662 -84.98188324 198.12622959 -86.25602722 198.12584114 C-89 198 -89 198 -90 197 C-90.09381302 195.15881971 -90.11743954 193.31402359 -90.11352539 191.47045898 C-90.11344986 190.28931015 -90.11337433 189.10816132 -90.11329651 187.89122009 C-90.10813522 186.6058284 -90.10297394 185.32043671 -90.09765625 183.99609375 C-90.0962413 182.68794205 -90.09482635 181.37979034 -90.09336853 180.03199768 C-90.0895441 176.54837141 -90.07971446 173.06478661 -90.06866455 169.58117676 C-90.05844882 166.02873292 -90.05387056 162.47628241 -90.04882812 158.92382812 C-90.03809212 151.94920168 -90.0210166 144.97460283 -90 138 C-92.64 138 -95.28 138 -98 138 C-98.74609375 135.86328125 -98.74609375 135.86328125 -99 133 C-97.34765625 130.10546875 -97.34765625 130.10546875 -95.0625 127.1875 C-94.31097656 126.21167969 -93.55945313 125.23585938 -92.78515625 124.23046875 C-92.19605469 123.49441406 -91.60695313 122.75835937 -91 122 C-92.33804688 121.88785156 -92.33804688 121.88785156 -93.703125 121.7734375 C-103.02108365 120.72670646 -103.02108365 120.72670646 -105.7890625 118.671875 C-107.45446814 116.29957056 -108.05326726 114.50603894 -107.75 111.625 C-107.5025 111.08875 -107.255 110.5525 -107 110 C-105.02 109.505 -105.02 109.505 -103 109 C-102.6599292 109.81041748 -102.3198584 110.62083496 -101.96948242 111.45581055 C-100.17593337 114.34956892 -100.17593337 114.34956892 -96.63012695 114.65942383 C-95.25001754 114.70002261 -93.86896509 114.71492908 -92.48828125 114.70703125 C-91.84258179 114.72165405 -91.19688232 114.73627686 -90.53161621 114.75134277 C-88.12562222 114.79861874 -85.7189397 114.80300917 -83.3125 114.8125 C-77.929375 114.874375 -72.54625 114.93625 -67 115 C-67 103.78 -67 92.56 -67 81 C-70.3 81 -73.6 81 -77 81 C-80.01863076 79.01212121 -80.75381941 77.79535268 -81.8125 74.375 C-82 72 -82 72 -81 70 C-79.35 70.33 -77.7 70.66 -76 71 C-75.67 71.99 -75.34 72.98 -75 74 C-71.6730788 75.6634606 -69.70675755 75.54326357 -66 75 C-62.72451185 72.63271885 -60.06031869 69.7629673 -57.3125 66.8125 C-56.56677734 66.04357422 -55.82105469 65.27464844 -55.05273438 64.48242188 C-52.10858775 61.42271553 -49.35271943 58.51993958 -46.96484375 55 C-44.55277591 52.54477389 -42.69890769 52.35285731 -39.31640625 52.20507812 C-38.29353516 52.19637695 -38.29353516 52.19637695 -37.25 52.1875 C-36.55261719 52.16236328 -35.85523437 52.13722656 -35.13671875 52.11132812 C-33.42508051 52.05271038 -31.7124814 52.02342947 -30 52 C-30 48.04 -30 44.08 -30 40 C-32.59875 39.87625 -32.59875 39.87625 -35.25 39.75 C-40.62052239 39.25298507 -40.62052239 39.25298507 -43.625 37.25 C-45.1594885 34.73901882 -45.84515331 32.94208705 -46 30 C-45.34 29.34 -44.68 28.68 -44 28 C-42 28.125 -42 28.125 -40 29 C-38.75 31.0625 -38.75 31.0625 -38 33 C-32.13439843 33.6795514 -29.41622461 31.6826986 -25 28.25 C-23.81312223 27.35854596 -22.62562779 26.46791233 -21.4375 25.578125 C-20.58285156 24.9294043 -20.58285156 24.9294043 -19.7109375 24.26757812 C-17.20392706 22.41021537 -14.61275441 20.70466294 -12 19 C-12.474375 18.46375 -12.94875 17.9275 -13.4375 17.375 C-15.34436132 14.4765708 -15.7884853 12.45474004 -16 9 C-14.94960638 4.98940618 -13.14469805 2.66822865 -10 0 C-6.1544104 -1.2818632 -3.93271581 -0.94927623 0 0 Z " fill="#413C3C" transform="translate(122,14)"/>
<path d="M0 0 C14.52 0 29.04 0 44 0 C44 18.15 44 36.3 44 55 C40.37 55 36.74 55 33 55 C32.97494385 53.67234619 32.9498877 52.34469238 32.92407227 50.97680664 C32.83018481 46.06980055 32.72991927 41.16294224 32.62768555 36.25610352 C32.58426577 34.12885993 32.54259607 32.0015799 32.50268555 29.87426758 C32.44515293 26.82361849 32.38141033 23.77315411 32.31640625 20.72265625 C32.29969376 19.76537125 32.28298126 18.80808624 32.26576233 17.8217926 C32.2358445 16.50053627 32.2358445 16.50053627 32.20532227 15.15258789 C32.18200584 13.9834359 32.18200584 13.9834359 32.15821838 12.79066467 C32.19110881 10.97706647 32.19110881 10.97706647 31 10 C29.66956375 9.9016279 28.33406656 9.86921408 27 9.8671875 C26.195625 9.86589844 25.39125 9.86460937 24.5625 9.86328125 C23.716875 9.86714844 22.87125 9.87101563 22 9.875 C21.154375 9.87113281 20.30875 9.86726562 19.4375 9.86328125 C18.633125 9.86457031 17.82875 9.86585938 17 9.8671875 C15.88625 9.86887939 15.88625 9.86887939 14.75 9.87060547 C12.97174189 9.81057784 12.97174189 9.81057784 12 11 C11.87802192 12.38050858 11.82231101 13.76697647 11.79467773 15.15258789 C11.77473251 16.03342545 11.75478729 16.914263 11.73423767 17.8217926 C11.70916893 19.25772011 11.70916893 19.25772011 11.68359375 20.72265625 C11.66281265 21.69786728 11.64203156 22.67307831 11.62062073 23.67784119 C11.55501588 26.8059863 11.49618972 29.93421822 11.4375 33.0625 C11.39432517 35.1777435 11.35071123 37.29297809 11.30664062 39.40820312 C11.19932339 44.60537884 11.09808716 49.80264222 11 55 C7.37 55 3.74 55 0 55 C0 36.85 0 18.7 0 0 Z " fill="#EC7363" transform="translate(95,152)"/>
<path d="M0 0 C8.58 0 17.16 0 26 0 C26 11.55 26 23.1 26 35 C11.48 35 -3.04 35 -18 35 C-16.30035425 31.6007085 -15.3548989 30.21826321 -12.8125 27.6875 C-9.44752836 23.93534543 -7.29799912 20.03002961 -5.1875 15.5 C-4.75304565 14.57513794 -4.75304565 14.57513794 -4.30981445 13.6315918 C-2.25859837 9.0551518 -1.24956745 4.99826979 0 0 Z " fill="#FCFBFB" transform="translate(171,152)"/>
<path d="M0 0 C8.58 0 17.16 0 26 0 C26.515625 1.876875 27.03125 3.75375 27.5625 5.6875 C30.62690169 15.5820646 34.77884741 24.84097743 42.71484375 31.73046875 C43.35099609 32.35888672 43.35099609 32.35888672 44 33 C44 33.66 44 34.32 44 35 C29.48 35 14.96 35 0 35 C0 23.45 0 11.9 0 0 Z " fill="#FCFBFB" transform="translate(37,152)"/>
<path d="M0 0 C11.55 0 23.1 0 35 0 C35 11.22 35 22.44 35 34 C26.09 34 17.18 34 8 34 C4 26 4 26 4 24 C2.68 24 1.36 24 0 24 C0 16.08 0 8.16 0 0 Z " fill="#EA7463" transform="translate(139,95)"/>
<path d="M0 0 C11.22 0 22.44 0 34 0 C34 7.92 34 15.84 34 24 C33.01 24 32.02 24 31 24 C30.71125 24.9075 30.4225 25.815 30.125 26.75 C29 30 29 30 27 34 C18.09 34 9.18 34 0 34 C0 22.78 0 11.56 0 0 Z " fill="#ED7564" transform="translate(60,95)"/>
<path d="M0 0 C0.33 3.63 0.66 7.26 1 11 C16.18 11 31.36 11 47 11 C47.33 7.37 47.66 3.74 48 0 C52.95036821 -0.8623222 58.26301976 -1.71128897 62.72900391 1.08105469 C68.57654032 5.92571546 72.80683569 11.71025353 77 18 C42.02 18 7.04 18 -29 18 C-14.01700921 -1.97732105 -14.01700921 -1.97732105 0 0 Z " fill="#F6F6F6" transform="translate(93,72)"/>
<path d="M0 0 C12.54 0 25.08 0 38 0 C38 8.58 38 17.16 38 26 C25.46 26 12.92 26 0 26 C0 17.42 0 8.84 0 0 Z " fill="#F1F0F0" transform="translate(98,53)"/>
<path d="M0 0 C11.22 0 22.44 0 34 0 C34 11.22 34 22.44 34 34 C32.35 34 30.7 34 29 34 C28.49210937 32.92621094 27.98421875 31.85242188 27.4609375 30.74609375 C21.35074636 18.02710316 15.71113891 11.13764939 4 3 C2.68 2.01 1.36 1.02 0 0 Z " fill="#FBF9F9" transform="translate(140,95)"/>
<path d="M0 0 C11.22 0 22.44 0 34 0 C31.85896952 1.60577286 29.70532785 3.19812584 27.484375 4.69140625 C16.36506727 12.30018968 9.68679887 21.50186968 5 34 C3.35 34 1.7 34 0 34 C0 22.78 0 11.56 0 0 Z " fill="#FAF9F9" transform="translate(60,95)"/>
<path d="M0 0 C3.96 0 7.92 0 12 0 C12 13.53 12 27.06 12 41 C8.04 41 4.08 41 0 41 C0 27.47 0 13.94 0 0 Z " fill="#E37060" transform="translate(111,166)"/>
<path d="M0 0 C5.94 0 11.88 0 18 0 C16.45473657 12.36210747 10.7638295 25.02952694 1 33 C0.67 33 0.34 33 0 33 C0 22.11 0 11.22 0 0 Z " fill="#EE7564" transform="translate(153,152)"/>
<path d="M0 0 C5.94 0 11.88 0 18 0 C18 10.89 18 21.78 18 33 C7.41610084 23.92808644 1.72739431 13.81915446 0 0 Z " fill="#EE7564" transform="translate(63,152)"/>
<path d="M0 0 C3.0625 2.4375 3.0625 2.4375 5 5 C5.33 5.33 5.66 5.66 6 6 C6.41345068 10.21719696 6.24797447 12.53061975 4.25 16.3125 C1.04340948 20.14259424 -0.49551135 20.83587397 -5.4375 21.375 C-9.62750939 20.93394638 -11.093893 19.98913863 -14 17 C-16.28853994 13.73065722 -16.47162218 10.9301848 -16 7 C-11.91220765 -0.22176648 -8.03238433 -1.17454677 0 0 Z " fill="#3E3C3D" transform="translate(122,56)"/>
<path d="M0 0 C21.000762 -1.63449327 21.000762 -1.63449327 25.921875 1.04736328 C28.93910751 3.81214589 30.66957241 7.18075529 32 11 C32 11.66 32 12.32 32 13 C21.44 13 10.88 13 0 13 C0 8.71 0 4.42 0 0 Z " fill="#F2F0F0" transform="translate(171,134)"/>
<path d="M0 0 C1.67642578 0.05414063 1.67642578 0.05414063 3.38671875 0.109375 C6.13429249 0.20330915 8.88009315 0.3467959 11.625 0.5 C11.625 4.79 11.625 9.08 11.625 13.5 C1.065 13.5 -9.495 13.5 -20.375 13.5 C-15.82823242 2.13308105 -12.41463503 -0.76037812 0 0 Z " fill="#F1F0F0" transform="translate(51.375,133.5)"/>
<path d="M0 0 C4.62 0 9.24 0 14 0 C14 7.92 14 15.84 14 24 C9.38 24 4.76 24 0 24 C0 16.08 0 8.16 0 0 Z " fill="#EC7362" transform="translate(120,95)"/>
<path d="M0 0 C4.62 0 9.24 0 14 0 C14 7.92 14 15.84 14 24 C9.38 24 4.76 24 0 24 C0 16.08 0 8.16 0 0 Z " fill="#EC7362" transform="translate(100,95)"/>
<path d="M0 0 C7.26 0 14.52 0 22 0 C22 0.33 22 0.66 22 1 C21.09507813 1.14695313 21.09507813 1.14695313 20.171875 1.296875 C15.30783959 2.20692033 12.10912858 2.85449523 9 7 C7.56695936 9.86608129 7.69355845 11.81300783 8 15 C10.70411527 20.51639515 13.44061311 22.07559685 19 24 C19 24.33 19 24.66 19 25 C12.73 25 6.46 25 0 25 C0 16.75 0 8.5 0 0 Z " fill="#FCFCFC" transform="translate(99,54)"/>
<path d="M0 0 C3.32535434 1.98213254 6.35659565 4.20711382 9.39453125 6.6015625 C10.29075195 7.29088867 10.29075195 7.29088867 11.20507812 7.99414062 C12.68670189 9.14726724 14.13746431 10.33983928 15.58203125 11.5390625 C15.58203125 11.8690625 15.58203125 12.1990625 15.58203125 12.5390625 C4.36203125 12.5390625 -6.85796875 12.5390625 -18.41796875 12.5390625 C-14.94667244 9.06776619 -11.7742656 6.05336275 -7.91796875 3.1015625 C-7.00015625 2.38097656 -6.08234375 1.66039062 -5.13671875 0.91796875 C-2.41796875 -0.4609375 -2.41796875 -0.4609375 0 0 Z " fill="#F6F6F6" transform="translate(118.41796875,35.4609375)"/>
<path d="M0 0 C3.96 0 7.92 0 12 0 C12 1.65 12 3.3 12 5 C10.68 5.33 9.36 5.66 8 6 C8 6.99 8 7.98 8 9 C12.95 9.33 17.9 9.66 23 10 C23 11.65 23 13.3 23 15 C15.41 15 7.82 15 0 15 C0 10.05 0 5.1 0 0 Z " fill="#EDEDED" transform="translate(152,192)"/>
<path d="M0 0 C6.6 0 13.2 0 20 0 C20 3.96 20 7.92 20 12 C15.05 12 10.1 12 5 12 C0 2.25 0 2.25 0 0 Z " fill="#E97262" transform="translate(151,135)"/>
<path d="M0 0 C6.6 0 13.2 0 20 0 C18 6 18 6 15 12 C10.05 12 5.1 12 0 12 C0 8.04 0 4.08 0 0 Z " fill="#E97262" transform="translate(63,135)"/>
<path d="M0 0 C3.63 0 7.26 0 11 0 C11 4.95 11 9.9 11 15 C3.41 15 -4.18 15 -12 15 C-12 13.35 -12 11.7 -12 10 C-7.05 9.67 -2.1 9.34 3 9 C3 8.01 3 7.02 3 6 C2.01 5.67 1.02 5.34 0 5 C0 3.35 0 1.7 0 0 Z " fill="#EFEFEF" transform="translate(71,192)"/>
<path d="M0 0 C2.64 0 5.28 0 8 0 C9.50585523 3.45581315 11.00368289 6.91504753 12.5 10.375 C12.92925781 11.35984375 13.35851562 12.3446875 13.80078125 13.359375 C14.20683594 14.30039063 14.61289063 15.24140625 15.03125 16.2109375 C15.40830078 17.08024902 15.78535156 17.94956055 16.17382812 18.84521484 C17 21 17 21 17 23 C13.7 23 10.4 23 7 23 C5.82762613 19.73111061 4.66190012 16.46011056 3.5 13.1875 C3.16613281 12.25873047 2.83226563 11.32996094 2.48828125 10.37304688 C2.17246094 9.48037109 1.85664062 8.58769531 1.53125 7.66796875 C1.09135742 6.43469849 1.09135742 6.43469849 0.64257812 5.17651367 C0 3 0 3 0 0 Z " fill="#E26F60" transform="translate(121,124)"/>
<path d="M0 0 C2.64 0 5.28 0 8 0 C7.20352971 4.95021409 5.54679293 9.58170153 3.9375 14.3125 C3.65583984 15.14845703 3.37417969 15.98441406 3.08398438 16.84570312 C2.39204818 18.89805624 1.69639291 20.94915483 1 23 C-2.3 23 -5.6 23 -9 23 C-6.54234965 15.08090444 -3.33181427 7.58014704 0 0 Z " fill="#E26F5F" transform="translate(105,124)"/>
<path d="M0 0 C0.99 0 1.98 0 3 0 C3 18.15 3 36.3 3 55 C2.01 55 1.02 55 0 55 C0 36.85 0 18.7 0 0 Z " fill="#E17061" transform="translate(144,152)"/>
<path d="M0 0 C0.99 0 1.98 0 3 0 C3 18.15 3 36.3 3 55 C2.01 55 1.02 55 0 55 C0 36.85 0 18.7 0 0 Z " fill="#E37061" transform="translate(87,152)"/>
<path d="M0 0 C1.98 0 3.96 0 6 0 C3.54234965 7.91909556 0.33181427 15.41985296 -3 23 C-5.31 23 -7.62 23 -10 23 C-9.42022443 19.52401836 -8.53478895 16.70895302 -6.93359375 13.57421875 C-6.53076172 12.77822266 -6.12792969 11.98222656 -5.71289062 11.16210938 C-5.29201172 10.34548828 -4.87113281 9.52886719 -4.4375 8.6875 C-4.01275391 7.85154297 -3.58800781 7.01558594 -3.15039062 6.15429688 C-2.1056521 4.10003574 -1.05540238 2.04879708 0 0 Z " fill="#E06F5F" transform="translate(94,124)"/>
<path d="M0 0 C1.98 0 3.96 0 6 0 C7.67643038 3.26591822 9.33943344 6.53849107 11 9.8125 C11.47695312 10.74126953 11.95390625 11.67003906 12.4453125 12.62695312 C13.12207031 13.9659668 13.12207031 13.9659668 13.8125 15.33203125 C14.23144531 16.15421143 14.65039062 16.9763916 15.08203125 17.82348633 C16 20 16 20 16 23 C13.69 23 11.38 23 9 23 C7.49414477 19.54418685 5.99631711 16.08495247 4.5 12.625 C4.07074219 11.64015625 3.64148438 10.6553125 3.19921875 9.640625 C2.79316406 8.69960937 2.38710937 7.75859375 1.96875 6.7890625 C1.59169922 5.91975098 1.21464844 5.05043945 0.82617188 4.15478516 C0 2 0 2 0 0 Z " fill="#E16F5F" transform="translate(134,124)"/>
<path d="M0 0 C2.9375 0.8125 2.9375 0.8125 4.9375 3.8125 C5.29134949 6.64329592 5.3295891 8.18080089 3.8125 10.625 C1.06594028 12.36448782 -0.88096974 12.21019128 -4.0625 11.8125 C-6 10.75 -6 10.75 -7.0625 8.8125 C-6.9375 5.25 -6.9375 5.25 -6.0625 1.8125 C-3.0625 -0.1875 -3.0625 -0.1875 0 0 Z " fill="#EDECED" transform="translate(118.0625,60.1875)"/>
<path d="M0 0 C0 3.96 0 7.92 0 12 C-3.63 12 -7.26 12 -11 12 C-11 9.03 -11 6.06 -11 3 C-9.54293274 2.49632243 -8.08429904 1.99717444 -6.625 1.5 C-5.81289062 1.2215625 -5.00078125 0.943125 -4.1640625 0.65625 C-2 0 -2 0 0 0 Z " fill="#F7F5F5" transform="translate(139,195)"/>
<path d="M0 0 C0.66 0 1.32 0 2 0 C2.64715133 2.0829243 3.29267166 4.16635539 3.9375 6.25 C4.29714844 7.41015625 4.65679687 8.5703125 5.02734375 9.765625 C5.74716125 12.15923499 6.39378192 14.5751277 7 17 C3.04 17 -0.92 17 -5 17 C-4.20514017 13.02570087 -3.23700354 9.50217167 -1.9375 5.6875 C-1.57527344 4.61886719 -1.21304688 3.55023438 -0.83984375 2.44921875 C-0.56269531 1.64097656 -0.28554687 0.83273438 0 0 Z " fill="#DA6D5D" transform="translate(116,130)"/>
<path d="M0 0 C5.445 1.485 5.445 1.485 11 3 C11 5.97 11 8.94 11 12 C7.37 12 3.74 12 0 12 C0 8.04 0 4.08 0 0 Z " fill="#F7F6F6" transform="translate(95,195)"/>
<path d="M0 0 C3.96 0 7.92 0 12 0 C12 2.64 12 5.28 12 8 C8.04 8 4.08 8 0 8 C0 5.36 0 2.72 0 0 Z " fill="#EFEBEB" transform="translate(111,199)"/>
<path d="M0 0 C6.27 0 12.54 0 19 0 C19 1.65 19 3.3 19 5 C12.73 5 6.46 5 0 5 C0 3.35 0 1.7 0 0 Z " fill="#EAE9E9" transform="translate(168,192)"/>
<path d="M0 0 C6.27 0 12.54 0 19 0 C19 1.65 19 3.3 19 5 C12.73 5 6.46 5 0 5 C0 3.35 0 1.7 0 0 Z " fill="#EAE9E9" transform="translate(47,192)"/>
<path d="M0 0 C3 0.25 3 0.25 5 2.25 C5.25 5.25 5.25 5.25 5 8.25 C3 10.25 3 10.25 0 10.5 C-3 10.25 -3 10.25 -5 8.25 C-5.25 5.25 -5.25 5.25 -5 2.25 C-3 0.25 -3 0.25 0 0 Z " fill="#EFEFEF" transform="translate(117,18.75)"/>
<path d="M0 0 C5.61 0 11.22 0 17 0 C17 1.65 17 3.3 17 5 C11.39 5 5.78 5 0 5 C0 3.35 0 1.7 0 0 Z " fill="#EDEDED" transform="translate(180,202)"/>
<path d="M0 0 C5.61 0 11.22 0 17 0 C17 1.65 17 3.3 17 5 C11.39 5 5.78 5 0 5 C0 3.35 0 1.7 0 0 Z " fill="#EDEDED" transform="translate(37,202)"/>
<path d="M0 0 C0.66 0 1.32 0 2 0 C2 5.28 2 10.56 2 16 C1.01 16 0.02 16 -1 16 C-1.02685095 13.52076199 -1.04676547 11.0418116 -1.0625 8.5625 C-1.07506836 7.50192383 -1.07506836 7.50192383 -1.08789062 6.41992188 C-1.09653588 4.61306441 -1.05220011 2.80612397 -1 1 C-0.67 0.67 -0.34 0.34 0 0 Z " fill="#EFEDED" transform="translate(145,191)"/>
<path d="M0 0 C0.99 0.33 1.98 0.66 3 1 C3 5.95 3 10.9 3 16 C2.01 16 1.02 16 0 16 C0 10.72 0 5.44 0 0 Z " fill="#F1F0F0" transform="translate(87,191)"/>
<path d="M0 0 C0.66 0 1.32 0 2 0 C0.46356148 3.68069887 -1.78150945 5.98775204 -4.625 8.75 C-5.85089844 9.94882813 -5.85089844 9.94882813 -7.1015625 11.171875 C-7.72804688 11.77515625 -8.35453125 12.3784375 -9 13 C-9.66 12.67 -10.32 12.34 -11 12 C-10.54109375 11.55269531 -10.0821875 11.10539062 -9.609375 10.64453125 C-6.796016 7.87254517 -4.13462156 5.17100576 -1.6875 2.0625 C-1.130625 1.381875 -0.57375 0.70125 0 0 Z " fill="#686667" transform="translate(77,67)"/>
<path d="M0 0 C1.65 0 3.3 0 5 0 C5 1.65 5 3.3 5 5 C3.35 5 1.7 5 0 5 C0 3.35 0 1.7 0 0 Z " fill="#EBEBEB" transform="translate(192,192)"/>
<path d="M0 0 C1.65 0 3.3 0 5 0 C5 1.65 5 3.3 5 5 C3.35 5 1.7 5 0 5 C0 3.35 0 1.7 0 0 Z " fill="#EAEAEA" transform="translate(37,192)"/>
</svg>
