<svg width="232" height="221" viewBox="0 0 232 221" fill="none" xmlns="http://www.w3.org/2000/svg">
<path d="M122 14C125.543 16.6186 126.787 18.2534 128 22.5C128 26.3987 127.225 27.8854 125 31C125 31.66 125 32.32 125 33C127.007 34.7093 129.015 36.3019 131.125 37.875C131.695 38.3094 132.265 38.7438 132.852 39.1914C139.456 44.569 139.456 44.569 147.188 47.5625C150.224 47.2803 150.224 47.2803 151.875 44.5C152.432 43.2625 152.432 43.2625 153 42C154.32 42.33 155.64 42.66 157 43C157.688 44.6875 157.688 44.6875 158 47C155.738 51.6308 155.738 51.6308 153 53C149.341 53.445 145.675 53.7009 142 54C142 57.96 142 61.92 142 66C142.92 65.8982 143.841 65.7963 144.789 65.6914C151.282 65.4732 155.923 65.5864 160.867 70.1602C163.881 73.3043 166.632 76.647 169.366 80.0342C171.068 82.0824 172.827 84.0365 174.668 85.9609C175.215 86.5338 175.762 87.1066 176.325 87.6968C178.155 89.3475 178.155 89.3475 181.813 89.5C184.887 89.1827 184.887 89.1827 187 88C188.134 85.9833 188.134 85.9833 189 84C190.65 84.33 192.3 84.66 194 85C193.702 88.2734 193.302 90.5347 191.5 93.3125C189 95 189 95 180 96C179.67 106.89 179.34 117.78 179 129C184.383 128.938 189.766 128.876 195.313 128.813C197.008 128.806 198.704 128.799 200.45 128.792C201.796 128.766 203.142 128.738 204.488 128.707C205.185 128.711 205.883 128.715 206.601 128.719C208.87 128.708 208.87 128.708 212 128C214.034 125.599 214.034 125.599 215 123C216.32 123.33 217.64 123.66 219 124C220.34 126.904 219.975 128.07 218.875 131.125C217.084 133.676 215.918 134.022 212.836 134.828C209.572 135.326 206.285 135.671 203 136C207.455 142.435 207.455 142.435 212 149C211.34 149.99 210.68 150.98 210 152C208.055 152.293 208.055 152.293 205.875 152.188C204.596 152.126 203.318 152.064 202 152C202.002 152.737 202.004 153.474 202.007 154.233C202.027 161.164 202.042 168.095 202.052 175.026C202.057 178.59 202.064 182.153 202.075 185.717C202.088 189.81 202.093 193.903 202.098 197.996C202.103 199.281 202.108 200.567 202.113 201.891C202.113 203.072 202.113 204.254 202.114 205.47C202.116 206.516 202.118 207.562 202.12 208.64C202 211 202 211 201 212C198.838 212.099 196.673 212.126 194.509 212.127C193.822 212.129 193.136 212.13 192.429 212.132C190.113 212.136 187.797 212.133 185.48 212.129C183.827 212.131 182.173 212.133 180.519 212.135C176.015 212.139 171.511 212.137 167.007 212.134C162.305 212.132 157.602 212.134 152.899 212.136C145 212.138 137.101 212.135 129.202 212.13C120.056 212.125 110.91 212.127 101.764 212.132C93.9265 212.137 86.0887 212.137 78.251 212.135C73.5633 212.133 68.8757 212.133 64.1881 212.136C59.7821 212.139 55.3762 212.137 50.9703 212.131C49.3485 212.13 47.7267 212.13 46.1048 212.133C43.9004 212.135 41.696 212.132 39.4915 212.127C38.2548 212.127 37.0181 212.126 35.744 212.126C33 212 33 212 32 211C31.9062 209.159 31.8826 207.314 31.8865 205.47C31.8866 204.289 31.8866 203.108 31.8867 201.891C31.8919 200.606 31.897 199.32 31.9024 197.996C31.9038 196.688 31.9052 195.38 31.9067 194.032C31.9105 190.548 31.9203 187.065 31.9314 183.581C31.9416 180.029 31.9461 176.476 31.9512 172.924C31.9619 165.949 31.979 158.975 32 152C29.36 152 26.72 152 24 152C23.2539 149.863 23.2539 149.863 23 147C24.6524 144.105 24.6524 144.105 26.9375 141.188C27.689 140.212 28.4406 139.236 29.2149 138.23C29.804 137.494 30.3931 136.758 31 136C29.662 135.888 29.662 135.888 28.2969 135.773C18.9789 134.727 18.9789 134.727 16.211 132.672C14.5456 130.3 13.9468 128.506 14.25 125.625C14.4975 125.089 14.745 124.553 15 124C16.98 123.505 16.98 123.505 19 123C19.3401 123.81 19.6802 124.621 20.0305 125.456C21.8241 128.35 21.8241 128.35 25.3699 128.659C26.75 128.7 28.1311 128.715 29.5117 128.707C30.1574 128.722 30.8031 128.736 31.4684 128.751C33.8744 128.799 36.2811 128.803 38.6875 128.813C44.0706 128.874 49.4538 128.936 55 129C55 117.78 55 106.56 55 95C51.7 95 48.4 95 45 95C41.9814 93.0121 41.2462 91.7954 40.1875 88.375C40 86 40 86 41 84C42.65 84.33 44.3 84.66 46 85C46.33 85.99 46.66 86.98 47 88C50.3269 89.6635 52.2933 89.5433 56 89C59.2755 86.6327 61.9397 83.763 64.6875 80.8125C65.4332 80.0436 66.179 79.2747 66.9473 78.4824C69.8914 75.4227 72.6473 72.5199 75.0352 69C77.4472 66.5448 79.3011 66.3529 82.6836 66.2051C83.7065 66.1964 83.7065 66.1964 84.75 66.1875C85.4474 66.1624 86.1448 66.1372 86.8633 66.1113C88.5749 66.0527 90.2875 66.0234 92 66C92 62.04 92 58.08 92 54C89.4013 53.8762 89.4013 53.8762 86.75 53.75C81.3795 53.253 81.3795 53.253 78.375 51.25C76.8405 48.739 76.1549 46.9421 76 44C76.66 43.34 77.32 42.68 78 42C80 42.125 80 42.125 82 43C83.25 45.0625 83.25 45.0625 84 47C89.8656 47.6796 92.5838 45.6827 97 42.25C98.1869 41.3585 99.3744 40.4679 100.563 39.5781C101.417 38.9294 101.417 38.9294 102.289 38.2676C104.796 36.4102 107.387 34.7047 110 33C109.526 32.4638 109.051 31.9275 108.563 31.375C106.656 28.4766 106.212 26.4547 106 23C107.05 18.9894 108.855 16.6682 112 14C115.846 12.7181 118.067 13.0507 122 14Z" fill="#3E3C3D"/>
<path d="M95 152C109.52 152 124.04 152 139 152C139 170.15 139 188.3 139 207C135.37 207 131.74 207 128 207C127.975 205.672 127.95 204.345 127.924 202.977C127.83 198.07 127.73 193.163 127.628 188.256C127.584 186.129 127.543 184.002 127.503 181.874C127.445 178.824 127.381 175.773 127.316 172.723C127.3 171.765 127.283 170.808 127.266 169.822C127.236 168.501 127.236 168.501 127.205 167.153C127.182 165.983 127.182 165.983 127.158 164.791C127.191 162.977 127.191 162.977 126 162C124.67 161.902 123.334 161.869 122 161.867C121.196 161.866 120.391 161.865 119.562 161.863C118.717 161.867 117.871 161.871 117 161.875C116.154 161.871 115.309 161.867 114.438 161.863C113.633 161.865 112.829 161.866 112 161.867C110.886 161.869 110.886 161.869 109.75 161.871C107.972 161.811 107.972 161.811 107 163C106.878 164.381 106.822 165.767 106.795 167.153C106.775 168.033 106.755 168.914 106.734 169.822C106.709 171.258 106.709 171.258 106.684 172.723C106.663 173.698 106.642 174.673 106.621 175.678C106.555 178.806 106.496 181.934 106.438 185.062C106.394 187.178 106.351 189.293 106.307 191.408C106.199 196.605 106.098 201.803 106 207C102.37 207 98.74 207 95 207C95 188.85 95 170.7 95 152Z" fill="#E97262"/>
<path d="M171 152C179.58 152 188.16 152 197 152C197 163.55 197 175.1 197 187C182.48 187 167.96 187 153 187C154.7 183.601 155.645 182.218 158.188 179.688C161.552 175.935 163.702 172.03 165.812 167.5C166.247 166.575 166.247 166.575 166.69 165.632C168.741 161.055 169.75 156.998 171 152Z" fill="white"/>
<path d="M37 152C45.58 152 54.16 152 63 152C63.5156 153.877 64.0312 155.754 64.5625 157.688C67.6269 167.582 71.7788 176.841 79.7148 183.73C80.351 184.359 80.351 184.359 81 185C81 185.66 81 186.32 81 187C66.48 187 51.96 187 37 187C37 175.45 37 163.9 37 152Z" fill="white"/>
<path d="M139 95C150.55 95 162.1 95 174 95C174 106.22 174 117.44 174 129C165.09 129 156.18 129 147 129C143 121 143 121 143 119C141.68 119 140.36 119 139 119C139 111.08 139 103.16 139 95Z" fill="#E97262"/>
<path d="M60 95C71.22 95 82.44 95 94 95C94 102.92 94 110.84 94 119C93.01 119 92.02 119 91 119C90.7113 119.908 90.4225 120.815 90.125 121.75C89 125 89 125 87 129C78.09 129 69.18 129 60 129C60 117.78 60 106.56 60 95Z" fill="#E97262"/>
<path d="M93 72C93.33 75.63 93.66 79.26 94 83C109.18 83 124.36 83 140 83C140.33 79.37 140.66 75.74 141 72C145.95 71.1377 151.263 70.2887 155.729 73.0811C161.577 77.9257 165.807 83.7103 170 90C135.02 90 100.04 90 64 90C78.983 70.0227 78.983 70.0227 93 72Z" fill="white"/>
<path d="M98 53C110.54 53 123.08 53 136 53C136 61.58 136 70.16 136 79C123.46 79 110.92 79 98 79C98 70.42 98 61.84 98 53Z" fill="white"/>
<path d="M140 95C151.22 95 162.44 95 174 95C174 106.22 174 117.44 174 129C172.35 129 170.7 129 169 129C168.492 127.926 167.984 126.852 167.461 125.746C161.351 113.027 155.711 106.138 144 98C142.68 97.01 141.36 96.02 140 95Z" fill="white"/>
<path d="M60 95C71.22 95 82.44 95 94 95C91.859 96.6058 89.7053 98.1981 87.4844 99.6914C76.3651 107.3 69.6868 116.502 65 129C63.35 129 61.7 129 60 129C60 117.78 60 106.56 60 95Z" fill="white"/>
<path d="M111 166C114.96 166 118.92 166 123 166C123 179.53 123 193.06 123 207C119.04 207 115.08 207 111 207C111 193.47 111 179.94 111 166Z" fill="#E97262"/>
<path d="M153 152C158.94 152 164.88 152 171 152C169.455 164.362 163.764 177.03 154 185C153.67 185 153.34 185 153 185C153 174.11 153 163.22 153 152Z" fill="#E97262"/>
<path d="M63 152C68.94 152 74.88 152 81 152C81 162.89 81 173.78 81 185C70.4161 175.928 64.7274 165.819 63 152Z" fill="#E97262"/>
<path d="M122 56C125.062 58.4375 125.062 58.4375 127 61C127.33 61.33 127.66 61.66 128 62C128.413 66.2172 128.248 68.5306 126.25 72.3125C123.043 76.1426 121.504 76.8359 116.562 77.375C112.372 76.9339 110.906 75.9891 108 73C105.711 69.7307 105.528 66.9302 106 63C110.088 55.7782 113.968 54.8255 122 56Z" fill="#3E3C3D"/>
<path d="M171 134C192.001 132.366 192.001 132.366 196.922 135.047C199.939 137.812 201.67 141.181 203 145C203 145.66 203 146.32 203 147C192.44 147 181.88 147 171 147C171 142.71 171 138.42 171 134Z" fill="white"/>
<path d="M51.375 133.5C53.0514 133.554 53.0514 133.554 54.7617 133.609C57.5093 133.703 60.2551 133.847 63 134C63 138.29 63 142.58 63 147C52.44 147 41.88 147 31 147C35.5468 135.633 38.9604 132.74 51.375 133.5Z" fill="white"/>
<path d="M120 95C124.62 95 129.24 95 134 95C134 102.92 134 110.84 134 119C129.38 119 124.76 119 120 119C120 111.08 120 103.16 120 95Z" fill="#E97262"/>
<path d="M100 95C104.62 95 109.24 95 114 95C114 102.92 114 110.84 114 119C109.38 119 104.76 119 100 119C100 111.08 100 103.16 100 95Z" fill="#E97262"/>
<path d="M118.418 35.4609C121.743 37.4431 124.775 39.6681 127.812 42.0625C128.709 42.7518 128.709 42.7518 129.623 43.4551C131.105 44.6082 132.555 45.8008 134 47C134 47.33 134 47.66 134 48C122.78 48 111.56 48 100 48C103.471 44.5287 106.644 41.5143 110.5 38.5625C111.418 37.8419 112.336 37.1213 113.281 36.3789C116 35 116 35 118.418 35.4609Z" fill="white"/>
<path d="M152 192C155.96 192 159.92 192 164 192C164 193.65 164 195.3 164 197C162.68 197.33 161.36 197.66 160 198C160 198.99 160 199.98 160 201C164.95 201.33 169.9 201.66 175 202C175 203.65 175 205.3 175 207C167.41 207 159.82 207 152 207C152 202.05 152 197.1 152 192Z" fill="white"/>
<path d="M151 135C157.6 135 164.2 135 171 135C171 138.96 171 142.92 171 147C166.05 147 161.1 147 156 147C151 137.25 151 137.25 151 135Z" fill="#E97262"/>
<path d="M63 135C69.6 135 76.2 135 83 135C81 141 81 141 78 147C73.05 147 68.1 147 63 147C63 143.04 63 139.08 63 135Z" fill="#E97262"/>
<path d="M71 192C74.63 192 78.26 192 82 192C82 196.95 82 201.9 82 207C74.41 207 66.82 207 59 207C59 205.35 59 203.7 59 202C63.95 201.67 68.9 201.34 74 201C74 200.01 74 199.02 74 198C73.01 197.67 72.02 197.34 71 197C71 195.35 71 193.7 71 192Z" fill="white"/>
<path d="M121 124C123.64 124 126.28 124 129 124C130.506 127.456 132.004 130.915 133.5 134.375C133.929 135.36 134.359 136.345 134.801 137.359C135.207 138.3 135.613 139.241 136.031 140.211C136.408 141.08 136.785 141.95 137.174 142.845C138 145 138 145 138 147C134.7 147 131.4 147 128 147C126.828 143.731 125.662 140.46 124.5 137.188C124.166 136.259 123.832 135.33 123.488 134.373C123.172 133.48 122.857 132.588 122.531 131.668C122.091 130.435 122.091 130.435 121.643 129.177C121 127 121 127 121 124Z" fill="#E97262"/>
<path d="M105 124C107.64 124 110.28 124 113 124C112.204 128.95 110.547 133.582 108.938 138.312C108.656 139.148 108.374 139.984 108.084 140.846C107.392 142.898 106.696 144.949 106 147C102.7 147 99.4 147 96 147C98.4577 139.081 101.668 131.58 105 124Z" fill="#E97262"/>
<path d="M144 152C144.99 152 145.98 152 147 152C147 170.15 147 188.3 147 207C146.01 207 145.02 207 144 207C144 188.85 144 170.7 144 152Z" fill="#E97262"/>
<path d="M87 152C87.99 152 88.98 152 90 152C90 170.15 90 188.3 90 207C89.01 207 88.02 207 87 207C87 188.85 87 170.7 87 152Z" fill="#E97262"/>
<path d="M94 124C95.98 124 97.96 124 100 124C97.5423 131.919 94.3318 139.42 91 147C88.69 147 86.38 147 84 147C84.5798 143.524 85.4652 140.709 87.0664 137.574C87.4692 136.778 87.8721 135.982 88.2871 135.162C88.708 134.345 89.1289 133.529 89.5625 132.688C89.9872 131.852 90.412 131.016 90.8496 130.154C91.8943 128.1 92.9446 126.049 94 124Z" fill="#E97262"/>
<path d="M134 124C135.98 124 137.96 124 140 124C141.676 127.266 143.339 130.538 145 133.812C145.477 134.741 145.954 135.67 146.445 136.627C147.122 137.966 147.122 137.966 147.812 139.332C148.231 140.154 148.65 140.976 149.082 141.823C150 144 150 144 150 147C147.69 147 145.38 147 143 147C141.494 143.544 139.996 140.085 138.5 136.625C138.071 135.64 137.641 134.655 137.199 133.641C136.793 132.7 136.387 131.759 135.969 130.789C135.592 129.92 135.215 129.05 134.826 128.155C134 126 134 126 134 124Z" fill="#E97262"/>
<path d="M118.062 60.1875C121 61 121 61 123 64C123.354 66.8308 123.392 68.3683 121.875 70.8125C119.128 72.552 117.182 72.3977 114 72C112.062 70.9375 112.062 70.9375 111 69C111.125 65.4375 111.125 65.4375 112 62C115 60 115 60 118.062 60.1875Z" fill="white"/>
<path d="M139 195C139 198.96 139 202.92 139 207C135.37 207 131.74 207 128 207C128 204.03 128 201.06 128 198C129.457 197.496 130.916 196.997 132.375 196.5C133.187 196.222 133.999 195.943 134.836 195.656C137 195 137 195 139 195Z" fill="white"/>
<path d="M116 130C116.66 130 117.32 130 118 130C118.647 132.083 119.293 134.166 119.938 136.25C120.297 137.41 120.657 138.57 121.027 139.766C121.747 142.159 122.394 144.575 123 147C119.04 147 115.08 147 111 147C111.795 143.026 112.763 139.502 114.062 135.688C114.425 134.619 114.787 133.55 115.16 132.449C115.437 131.641 115.714 130.833 116 130Z" fill="#E97262"/>
<path d="M95 195C100.445 196.485 100.445 196.485 106 198C106 200.97 106 203.94 106 207C102.37 207 98.74 207 95 207C95 203.04 95 199.08 95 195Z" fill="white"/>
<path d="M111 199C114.96 199 118.92 199 123 199C123 201.64 123 204.28 123 207C119.04 207 115.08 207 111 207C111 204.36 111 201.72 111 199Z" fill="white"/>
<path d="M168 192C174.27 192 180.54 192 187 192C187 193.65 187 195.3 187 197C180.73 197 174.46 197 168 197C168 195.35 168 193.7 168 192Z" fill="white"/>
<path d="M47 192C53.27 192 59.54 192 66 192C66 193.65 66 195.3 66 197C59.73 197 53.46 197 47 197C47 195.35 47 193.7 47 192Z" fill="white"/>
<path d="M117 18.75C120 19 120 19 122 21C122.25 24 122.25 24 122 27C120 29 120 29 117 29.25C114 29 114 29 112 27C111.75 24 111.75 24 112 21C114 19 114 19 117 18.75Z" fill="white"/>
<path d="M180 202C185.61 202 191.22 202 197 202C197 203.65 197 205.3 197 207C191.39 207 185.78 207 180 207C180 205.35 180 203.7 180 202Z" fill="white"/>
<path d="M37 202C42.61 202 48.22 202 54 202C54 203.65 54 205.3 54 207C48.39 207 42.78 207 37 207C37 205.35 37 203.7 37 202Z" fill="white"/>
<path d="M145 191C145.66 191 146.32 191 147 191C147 196.28 147 201.56 147 207C146.01 207 145.02 207 144 207C143.973 204.521 143.953 202.042 143.938 199.562C143.925 198.502 143.925 198.502 143.912 197.42C143.904 195.613 143.948 193.806 144 192C144.33 191.67 144.66 191.34 145 191Z" fill="white"/>
<path d="M87 191C87.99 191.33 88.98 191.66 90 192C90 196.95 90 201.9 90 207C89.01 207 88.02 207 87 207C87 201.72 87 196.44 87 191Z" fill="white"/>
<path d="M192 192C193.65 192 195.3 192 197 192C197 193.65 197 195.3 197 197C195.35 197 193.7 197 192 197C192 195.35 192 193.7 192 192Z" fill="white"/>
<path d="M37 192C38.65 192 40.3 192 42 192C42 193.65 42 195.3 42 197C40.35 197 38.7 197 37 197C37 195.35 37 193.7 37 192Z" fill="white"/>
</svg>
