<svg width="7" height="8" viewBox="0 0 7 8" fill="none" xmlns="http://www.w3.org/2000/svg">
<g clip-path="url(#clip0_201_21599)">
<path d="M4.3749 3.99155C5.06907 3.99155 5.62441 4.54689 5.62441 5.24107C5.62441 5.48542 5.555 5.71311 5.43282 5.90748L6.28805 6.76826L5.90209 7.15422L5.03575 6.30177C4.84416 6.42117 4.61647 6.49059 4.3749 6.49059C3.68072 6.49059 3.12538 5.93525 3.12538 5.24107C3.12538 4.54689 3.68072 3.99155 4.3749 3.99155ZM4.3749 4.54689C4.19079 4.54689 4.01422 4.62003 3.88404 4.75021C3.75386 4.88039 3.68072 5.05696 3.68072 5.24107C3.68072 5.42518 3.75386 5.60174 3.88404 5.73193C4.01422 5.86211 4.19079 5.93525 4.3749 5.93525C4.559 5.93525 4.73557 5.86211 4.86575 5.73193C4.99594 5.60174 5.06907 5.42518 5.06907 5.24107C5.06907 5.05696 4.99594 4.88039 4.86575 4.75021C4.73557 4.62003 4.559 4.54689 4.3749 4.54689ZM5.48558 1.21484C5.5224 1.21484 5.55771 1.22947 5.58375 1.25551C5.60979 1.28154 5.62441 1.31686 5.62441 1.35368V3.93879C5.46337 3.78607 5.27733 3.66112 5.06907 3.57504V1.96455L4.23606 2.28665V3.43621C4.04169 3.45565 3.85288 3.50285 3.68072 3.57504V2.28943L2.57004 1.90069V5.13833V5.24107C2.57004 5.41878 2.59503 5.59093 2.64223 5.75198L2.29237 5.62981L0.809605 6.20459L0.765178 6.21292C0.728357 6.21292 0.693043 6.19829 0.667007 6.17225C0.64097 6.14621 0.626343 6.1109 0.626343 6.07408V1.8757C0.626343 1.81184 0.667993 1.76185 0.726304 1.74242L2.29237 1.21484L3.95839 1.79795L5.44115 1.22317L5.48558 1.21484ZM1.18168 2.17558V5.46598L2.0147 5.14388V1.89514L1.18168 2.17558Z" fill="black"/>
</g>
<defs>
<clipPath id="clip0_201_21599">
<rect width="6.6641" height="6.6641" fill="white" transform="translate(0.0710449 0.65918)"/>
</clipPath>
</defs>
</svg>
